<?xml version="1.0" encoding="UTF-8"?>
<svg width="900" height="700" xmlns="http://www.w3.org/2000/svg">
  <!-- Title -->
  <text x="450" y="30" text-anchor="middle" font-size="24" font-weight="bold" fill="#333">Tinker Detailed Architecture</text>
  
  <!-- Define patterns and gradients -->
  <defs>
    <pattern id="diagonalHatch" patternUnits="userSpaceOnUse" width="4" height="4">
      <path d="M-1,1 l2,-2 M0,4 l4,-4 M3,5 l2,-2" style="stroke:#ccc;stroke-width:0.5"/>
    </pattern>
    <linearGradient id="componentGradient" x1="0%" y1="0%" x2="0%" y2="100%">
      <stop offset="0%" style="stop-color:#6c757d;stop-opacity:1" />
      <stop offset="100%" style="stop-color:#495057;stop-opacity:1" />
    </linearGradient>
    <marker id="arrow" markerWidth="10" markerHeight="7" refX="9" refY="3.5" orient="auto">
      <polygon points="0 0, 10 3.5, 0 7" fill="#666" />
    </marker>
  </defs>
  
  <!-- Main Components -->
  
  <!-- User Interface Layer -->
  <rect x="50" y="60" width="800" height="60" fill="#e8f5e9" stroke="#4caf50" stroke-width="2" rx="5"/>
  <text x="450" y="95" text-anchor="middle" font-size="16" font-weight="bold" fill="#2e7d32">User Interface Layer</text>
  
  <!-- CLI Interface -->
  <rect x="200" y="70" width="150" height="40" fill="white" stroke="#4caf50" stroke-width="1" rx="3"/>
  <text x="275" y="95" text-anchor="middle" font-size="14">main.py (CLI)</text>
  
  <!-- Interactive Mode -->
  <rect x="400" y="70" width="150" height="40" fill="white" stroke="#4caf50" stroke-width="1" rx="3"/>
  <text x="475" y="95" text-anchor="middle" font-size="14">Interactive Mode</text>
  
  <!-- Single Task Mode -->
  <rect x="600" y="70" width="150" height="40" fill="white" stroke="#4caf50" stroke-width="1" rx="3"/>
  <text x="675" y="95" text-anchor="middle" font-size="14">Single Task Mode</text>
  
  <!-- LangGraph Workflow Layer -->
  <rect x="50" y="140" width="800" height="120" fill="#e3f2fd" stroke="#2196f3" stroke-width="2" rx="5"/>
  <text x="450" y="160" text-anchor="middle" font-size="16" font-weight="bold" fill="#1565c0">LangGraph Workflow Layer</text>
  
  <!-- Workflow Components -->
  <rect x="100" y="180" width="160" height="60" fill="white" stroke="#2196f3" stroke-width="1" rx="3"/>
  <text x="180" y="205" text-anchor="middle" font-size="13" font-weight="bold">TinkerWorkflow</text>
  <text x="180" y="225" text-anchor="middle" font-size="11">langgraph_workflow.py</text>
  
  <rect x="300" y="180" width="160" height="60" fill="white" stroke="#2196f3" stroke-width="1" rx="3"/>
  <text x="380" y="205" text-anchor="middle" font-size="13" font-weight="bold">TinkerState</text>
  <text x="380" y="225" text-anchor="middle" font-size="11">langgraph_state.py</text>
  
  <rect x="500" y="180" width="160" height="60" fill="white" stroke="#2196f3" stroke-width="1" rx="3"/>
  <text x="580" y="205" text-anchor="middle" font-size="13" font-weight="bold">LangGraphNodes</text>
  <text x="580" y="225" text-anchor="middle" font-size="11">langgraph_nodes.py</text>
  
  <rect x="700" y="180" width="120" height="60" fill="white" stroke="#2196f3" stroke-width="1" rx="3"/>
  <text x="760" y="205" text-anchor="middle" font-size="13" font-weight="bold">Checkpoint</text>
  <text x="760" y="225" text-anchor="middle" font-size="11">Manager</text>
  
  <!-- Node Details -->
  <rect x="50" y="280" width="800" height="200" fill="#fff3e0" stroke="#ff9800" stroke-width="2" rx="5"/>
  <text x="450" y="300" text-anchor="middle" font-size="16" font-weight="bold" fill="#e65100">LangGraph Nodes Detail</text>
  
  <!-- Three main nodes -->
  <rect x="100" y="320" width="200" height="140" fill="white" stroke="#ff9800" stroke-width="1" rx="3"/>
  <text x="200" y="340" text-anchor="middle" font-size="14" font-weight="bold">Task Analyzer Node</text>
  <text x="200" y="360" text-anchor="middle" font-size="11">• Receives user input</text>
  <text x="200" y="375" text-anchor="middle" font-size="11">• Calls Claude API</text>
  <text x="200" y="390" text-anchor="middle" font-size="11">• Plans tool execution</text>
  <text x="200" y="405" text-anchor="middle" font-size="11">• Stores pending response</text>
  <text x="200" y="435" text-anchor="middle" font-size="10" fill="#666">Model: claude-sonnet-4</text>
  
  <rect x="350" y="320" width="200" height="140" fill="white" stroke="#ff9800" stroke-width="1" rx="3"/>
  <text x="450" y="340" text-anchor="middle" font-size="14" font-weight="bold">Tool Executor Node</text>
  <text x="450" y="360" text-anchor="middle" font-size="11">• Executes shell commands</text>
  <text x="450" y="375" text-anchor="middle" font-size="11">• Collects all output</text>
  <text x="450" y="390" text-anchor="middle" font-size="11">• Calls Claude with results</text>
  <text x="450" y="405" text-anchor="middle" font-size="11">• Generates final response</text>
  <text x="450" y="435" text-anchor="middle" font-size="10" fill="#666">Uses: AnthropicToolsManager</text>
  
  <rect x="600" y="320" width="200" height="140" fill="white" stroke="#ff9800" stroke-width="1" rx="3"/>
  <text x="700" y="340" text-anchor="middle" font-size="14" font-weight="bold">Completion Node</text>
  <text x="700" y="360" text-anchor="middle" font-size="11">• Marks task complete</text>
  <text x="700" y="375" text-anchor="middle" font-size="11">• Handles no-tool path</text>
  <text x="700" y="390" text-anchor="middle" font-size="11">• Adds conversational</text>
  <text x="700" y="405" text-anchor="middle" font-size="11">  responses</text>
  
  <!-- Infrastructure Layer -->
  <rect x="50" y="500" width="800" height="120" fill="#fce4ec" stroke="#e91e63" stroke-width="2" rx="5"/>
  <text x="450" y="520" text-anchor="middle" font-size="16" font-weight="bold" fill="#880e4f">Infrastructure Layer</text>
  
  <!-- Infrastructure Components -->
  <rect x="100" y="540" width="140" height="60" fill="white" stroke="#e91e63" stroke-width="1" rx="3"/>
  <text x="170" y="565" text-anchor="middle" font-size="13" font-weight="bold">Docker</text>
  <text x="170" y="585" text-anchor="middle" font-size="11">Container</text>
  
  <rect x="280" y="540" width="140" height="60" fill="white" stroke="#e91e63" stroke-width="1" rx="3"/>
  <text x="350" y="565" text-anchor="middle" font-size="13" font-weight="bold">SQLite DB</text>
  <text x="350" y="585" text-anchor="middle" font-size="11">memory.db</text>
  
  <rect x="460" y="540" width="140" height="60" fill="white" stroke="#e91e63" stroke-width="1" rx="3"/>
  <text x="530" y="565" text-anchor="middle" font-size="13" font-weight="bold">Anthropic API</text>
  <text x="530" y="585" text-anchor="middle" font-size="11">Claude Sonnet 4</text>
  
  <rect x="640" y="540" width="140" height="60" fill="white" stroke="#e91e63" stroke-width="1" rx="3"/>
  <text x="710" y="565" text-anchor="middle" font-size="13" font-weight="bold">Environment</text>
  <text x="710" y="585" text-anchor="middle" font-size="11">.env file</text>
  
  <!-- Data flow arrows -->
  <path d="M 450,120 L 450,140" stroke="#666" stroke-width="2" marker-end="url(#arrow)"/>
  <path d="M 450,260 L 450,280" stroke="#666" stroke-width="2" marker-end="url(#arrow)"/>
  <path d="M 450,480 L 450,500" stroke="#666" stroke-width="2" marker-end="url(#arrow)"/>
  
  <!-- State flow visualization -->
  <rect x="50" y="640" width="800" height="40" fill="#f5f5f5" stroke="#9e9e9e" stroke-width="1" rx="3"/>
  <text x="70" y="665" font-size="14" font-weight="bold" fill="#616161">State Flow:</text>
  <text x="180" y="665" font-size="12" fill="#616161">task_content → planned_tools → tool_results → AI response → conversation_history</text>
</svg>